<?xml version="1.0" encoding="UTF-8"?>
<svg version="1.1" xmlns="http://www.w3.org/2000/svg" width="300" height="300">
<path d="M0 0 C99 0 198 0 300 0 C300 99 300 198 300 300 C201 300 102 300 0 300 C0 201 0 102 0 0 Z " fill="#000000" transform="translate(0,0)"/>
<path d="M0 0 C8.91 0 17.82 0 27 0 C27.33 16.5 27.66 33 28 50 C30.97 47.69 33.94 45.38 37 43 C48.3435925 36.53845997 60.08105129 34.10077453 73 37 C73 39 73 39 70.75 41.3125 C69.8425 42.199375 68.935 43.08625 68 44 C64.86767814 47.56056899 62.99208935 50.90888526 61.25 55.3125 C60.82203125 56.38113281 60.3940625 57.44976562 59.953125 58.55078125 C59.48132813 59.76314453 59.48132813 59.76314453 59 61 C58.05640625 60.93039063 57.1128125 60.86078125 56.140625 60.7890625 C45.75659272 60.35118162 38.28348453 62.0344256 29.87860107 68.67645264 C27.32880086 71.83017253 27.48307956 73.85194183 27.45410156 77.87988281 C27.44376389 78.56321686 27.43342621 79.2465509 27.42277527 79.95059204 C27.39335644 82.20167715 27.3918484 84.4518628 27.390625 86.703125 C27.37564259 88.26684279 27.35891531 89.83054476 27.34051514 91.39422607 C27.29683557 95.5041578 27.27684139 99.61387607 27.26177979 103.72399902 C27.24221073 107.92029445 27.20024055 112.11635927 27.16015625 116.3125 C27.08484742 124.54163458 27.03663124 132.77060226 27 141 C18.09 141 9.18 141 0 141 C0 94.47 0 47.94 0 0 Z " fill="#F6DD00" transform="translate(50,79)"/>
<path d="M0 0 C10.89 0 21.78 0 33 0 C30.96929791 4.06140418 28.52799378 6.83428964 25.4375 10.0625 C21.61699435 14.12039629 17.92801739 18.21200007 14.4375 22.5625 C10.33072684 27.68097823 5.95705451 32.48032547 1.48046875 37.2734375 C-0.7944321 39.77403718 -2.92153017 42.33529508 -5 45 C-3.2922598 48.79600947 -0.92536242 52.07784498 1.5 55.4375 C1.94504883 56.05729736 2.39009766 56.67709473 2.84863281 57.31567383 C6.12904846 61.85774335 9.51247441 66.31230232 12.95361328 70.73413086 C17.47323256 76.56224574 21.82439191 82.51345545 26.17871094 88.46557617 C28.5346505 91.68074469 30.8824946 94.85701608 33.4140625 97.9375 C35 100 35 100 35 102 C30.28652262 102.27335034 25.57770561 102.47209484 20.8581543 102.60424805 C19.25609988 102.65934644 17.65459336 102.73426105 16.05444336 102.82983398 C10.85159371 103.13264534 6.09699829 103.19323273 1 102 C-2.51884661 98.83062907 -4.11680788 95.28700832 -6 91 C-6.89969794 89.58036595 -7.83311542 88.18117062 -8.80859375 86.8125 C-9.24196045 86.18150391 -9.67532715 85.55050781 -10.12182617 84.90039062 C-10.55599854 84.27326172 -10.9901709 83.64613281 -11.4375 83 C-11.90196533 82.32646484 -12.36643066 81.65292969 -12.8449707 80.95898438 C-16.80446989 75.23781766 -20.86329918 69.59462117 -25 64 C-26.08518111 64.91447846 -27.16804738 65.83170407 -28.25 66.75 C-28.85328125 67.26046875 -29.4565625 67.7709375 -30.078125 68.296875 C-30.71234375 68.85890625 -31.3465625 69.4209375 -32 70 C-32.68707031 70.56074219 -33.37414062 71.12148437 -34.08203125 71.69921875 C-36.61304271 74.73540154 -36.53811969 76.59658273 -36.609375 80.515625 C-36.64160156 81.76601562 -36.67382812 83.01640625 -36.70703125 84.3046875 C-36.72830078 86.25761719 -36.72830078 86.25761719 -36.75 88.25 C-36.79447266 90.22613281 -36.79447266 90.22613281 -36.83984375 92.2421875 C-36.91054536 95.49446134 -36.9575357 98.74723492 -37 102 C-45.91 102 -54.82 102 -64 102 C-64 92.76 -64 83.52 -64 74 C-61.875625 73.319375 -59.75125 72.63875 -57.5625 71.9375 C-47.26197368 68.37404246 -39.70776149 62.33456826 -34 53 C-31.65538098 47.92976137 -30.11060181 42.95608202 -29.3125 37.4375 C-28.26564844 32.26752256 -25.08031913 29.30621785 -21.49609375 25.6015625 C-19.00343011 23.00357504 -16.75088603 20.3086627 -14.5 17.5 C-10.73968672 12.84595029 -6.80435955 8.39535541 -2.75 3.99609375 C-0.95218021 2.11549325 -0.95218021 2.11549325 0 0 Z " fill="#F4DC00" transform="translate(221,118)"/>
<path d="M0 0 C8.91 0 17.82 0 27 0 C27 14.52 27 29.04 27 44 C26.34 44 25.68 44 25 44 C24.2575 42.948125 24.2575 42.948125 23.5 41.875 C17.2473226 34.68442099 8.82477123 32.20900772 0 29 C0 19.43 0 9.86 0 0 Z " fill="#F0D800" transform="translate(157,79)"/>
<path d="M0 0 C4.455 2.97 4.455 2.97 9 6 C15.42817326 9.21408663 19.63981428 10.36440317 27 12 C27 21.24 27 30.48 27 40 C18.09 40 9.18 40 0 40 C0 26.8 0 13.6 0 0 Z " fill="#F2DA00" transform="translate(119,180)"/>
<path d="M0 0 C1.98 0 3.96 0 6 0 C5.01 3.96 4.02 7.92 3 12 C4.98 12 6.96 12 9 12 C9.20496094 11.21753906 9.40992188 10.43507812 9.62109375 9.62890625 C9.89050781 8.61699219 10.15992188 7.60507813 10.4375 6.5625 C10.70433594 5.55316406 10.97117188 4.54382813 11.24609375 3.50390625 C12 1 12 1 13 0 C14.66617115 -0.04063832 16.33388095 -0.042721 18 0 C17.69106068 1.6256807 17.3777305 3.25052748 17.0625 4.875 C16.88847656 5.77992188 16.71445313 6.68484375 16.53515625 7.6171875 C16 10 16 10 15 12 C17.31 12 19.62 12 22 12 C21.67 13.65 21.34 15.3 21 17 C17.04 17.495 17.04 17.495 13 18 C11.68 21.96 10.36 25.92 9 30 C11.31 30 13.62 30 16 30 C15.67 31.65 15.34 33.3 15 35 C12.36 35.33 9.72 35.66 7 36 C5.68 39.63 4.36 43.26 3 47 C1.35 47 -0.3 47 -2 47 C-1.40075776 42.80530429 -0.42500059 38.99000166 1 35 C-1.31 35 -3.62 35 -6 35 C-6.12375 35.680625 -6.2475 36.36125 -6.375 37.0625 C-7.09100877 40.4277412 -8.02945125 43.70013425 -9 47 C-10.98 47 -12.96 47 -15 47 C-14.40075776 42.80530429 -13.42500059 38.99000166 -12 35 C-13.98 35 -15.96 35 -18 35 C-17.67 33.35 -17.34 31.7 -17 30 C-14.36 30 -11.72 30 -9 30 C-8.87625 28.96875 -8.7525 27.9375 -8.625 26.875 C-8.06110186 23.37883154 -7.21317941 20.31602373 -6 17 C-7.98 17 -9.96 17 -12 17 C-11.67 15.35 -11.34 13.7 -11 12 C-7.535 11.505 -7.535 11.505 -4 11 C-2.68 7.37 -1.36 3.74 0 0 Z " fill="#E9D200" transform="translate(148,127)"/>
<path d="M0 0 C2.31 0 4.62 0 7 0 C6.01 4.29 5.02 8.58 4 13 C1.36 13 -1.28 13 -4 13 C-3.52140759 11.39566191 -3.04210442 9.79153584 -2.5625 8.1875 C-2.29566406 7.29417969 -2.02882812 6.40085938 -1.75390625 5.48046875 C-1.19612127 3.64526945 -0.60655425 1.81966274 0 0 Z " fill="#1B1800" transform="translate(148,144)"/>
</svg>
